HIERARCHY
ROOT Hips
{
	OFFSET 51.240299 -15.765416 100.627998
	CHANNELS 6 Xposition Yposition Zposition Xrotation Yrotation Zrotation
	JOINT spine
	{
		OFFSET 0.000000 -0.507026 8.817039
		CHANNELS 3 Xrotation Yrotation Zrotation
		JOINT spine1
		{
			OFFSET 0.000000 -0.000002 10.776596
			CHANNELS 3 Xrotation Yrotation Zrotation
			JOINT spine2
			{
				OFFSET 0.000000 -0.000002 10.325897
				CHANNELS 3 Xrotation Yrotation Zrotation
				JOINT Neck
				{
					OFFSET 0.000000 -1.263954 26.511002
					CHANNELS 3 Xrotation Yrotation Zrotation
					JOINT Head
					{
						OFFSET 0.000000 -0.000002 8.009659
						CHANNELS 3 Xrotation Yrotation Zrotation
						End Site
						{
							OFFSET 0.000000 6.393856 19.387894
						}
					}
				}
				JOINT RightShoulder
				{
					OFFSET -4.347950 0.605420 11.151199
					CHANNELS 3 Xrotation Yrotation Zrotation
					JOINT RightArm
					{
						OFFSET 0.000000 -0.000003 14.625793
						CHANNELS 3 Xrotation Yrotation Zrotation
						JOINT RightArmRoll
						{
							OFFSET 0.000000 -0.000001 7.383392
							CHANNELS 3 Xrotation Yrotation Zrotation
							JOINT RightForeArm
							{
								OFFSET 0.000000 -0.000004 21.505203
								CHANNELS 3 Xrotation Yrotation Zrotation
								JOINT RightForeArmRoll
								{
									OFFSET 0.000000 -0.000001 8.285324
									CHANNELS 3 Xrotation Yrotation Zrotation
									JOINT RightHand
									{
										OFFSET 0.000000 -0.000003 16.626801
										CHANNELS 3 Xrotation Yrotation Zrotation
										End Site
										{
											OFFSET 0.000000 0.000000 0.100006
										}
									}
								}
							}
						}
					}
				}
				JOINT LeftShoulder
				{
					OFFSET 4.347950 0.605420 11.151199
					CHANNELS 3 Xrotation Yrotation Zrotation
					JOINT LeftArm
					{
						OFFSET 0.000000 -0.000003 14.625793
						CHANNELS 3 Xrotation Yrotation Zrotation
						JOINT LeftArmRoll
						{
							OFFSET 0.000000 -0.000001 7.383392
							CHANNELS 3 Xrotation Yrotation Zrotation
							JOINT LeftForeArm
							{
								OFFSET 0.000000 -0.000004 21.505203
								CHANNELS 3 Xrotation Yrotation Zrotation
								JOINT LeftForeArmRoll
								{
									OFFSET 0.000000 -0.000001 8.285324
									CHANNELS 3 Xrotation Yrotation Zrotation
									JOINT LeftHand
									{
										OFFSET 0.000000 -0.000003 16.626801
										CHANNELS 3 Xrotation Yrotation Zrotation
										End Site
										{
											OFFSET 0.000000 0.000000 0.100006
										}
									}
								}
							}
						}
					}
				}
			}
		}
	}
	JOINT RightUpLeg
	{
		OFFSET -7.815102 1.202170 -1.433090
		CHANNELS 3 Xrotation Yrotation Zrotation
		JOINT RightUpLegRoll
		{
			OFFSET 0.000000 -0.000003 19.495903
			CHANNELS 3 Xrotation Yrotation Zrotation
			JOINT RightLeg
			{
				OFFSET 0.000000 0.000004 -24.142700
				CHANNELS 3 Xrotation Yrotation Zrotation
				JOINT RightLegRoll
				{
					OFFSET 0.000000 -0.000004 24.221703
					CHANNELS 3 Xrotation Yrotation Zrotation
					JOINT RightFoot
					{
						OFFSET 0.000000 -0.000004 20.160500
						CHANNELS 3 Xrotation Yrotation Zrotation
						JOINT RightToeBase
						{
							OFFSET 0.000000 -0.000003 16.853195
							CHANNELS 3 Xrotation Yrotation Zrotation
							End Site
							{
								OFFSET 0.007145 0.940779 8.161865
							}
						}
					}
				}
			}
		}
	}
	JOINT LeftUpLeg
	{
		OFFSET 7.815102 1.202170 -1.433090
		CHANNELS 3 Xrotation Yrotation Zrotation
		JOINT LeftUpLegRoll
		{
			OFFSET 0.000000 -0.000003 19.496002
			CHANNELS 3 Xrotation Yrotation Zrotation
			JOINT LeftLeg
			{
				OFFSET 0.000000 -0.000004 24.142601
				CHANNELS 3 Xrotation Yrotation Zrotation
				JOINT LeftLegRoll
				{
					OFFSET 0.000000 -0.000005 24.445602
					CHANNELS 3 Xrotation Yrotation Zrotation
					JOINT LeftFoot
					{
						OFFSET 0.000000 -0.000003 19.936600
						CHANNELS 3 Xrotation Yrotation Zrotation
						JOINT LeftToeBase
						{
							OFFSET 0.000000 -0.000003 16.853195
							CHANNELS 3 Xrotation Yrotation Zrotation
							End Site
							{
								OFFSET -0.032013 0.940779 8.161865
							}
						}
					}
				}
			}
		}
	}
}
MOTION
Frames: 7
Frame Time: 0.041667
50.954193 -15.292319 100.625992 -3.318851 -0.443528 1.906360 -1.871861 -0.070427 -0.052550 0.259028 -0.139477 -0.106718 1.904106 -0.140746 -0.105040 27.171266 0.879981 1.706527 -7.011203 4.664277 1.567516 -8.483798 -66.301958 -10.532534 -46.152302 -111.848412 -30.852432 0.000001 -0.000024 -0.000001 0.113141 -14.238370 -0.303447 0.000001 0.000007 -3.016170 -5.000231 -7.998759 0.000162 -8.429040 62.431815 10.213113 -37.410268 110.935536 25.505275 0.000001 -0.000009 0.000002 3.777699 8.839037 0.350733 -0.000007 -0.000005 3.002811 -5.000255 7.998890 -0.000135 2.785324 -178.526733 0.060822 -179.999991 0.000006 -1.117004 175.002861 -2.061138 -0.400179 -0.000004 -0.000001 0.038023 68.557805 6.899819 2.143193 25.458478 -7.355626 0.002382 2.008724 177.746384 2.429669 -0.000005 -0.000004 -1.135770 -7.593211 2.081384 0.459363 0.000000 -0.000000 -0.120381 69.807784 -6.874095 -2.104706 25.710415 7.353959 -0.382711 
50.965096 -15.261222 100.626984 -3.317861 -0.443211 1.905887 -1.872901 -0.070379 -0.052499 0.256966 -0.139213 -0.106663 1.902036 -0.140481 -0.104988 27.173412 0.872786 1.708118 -7.000967 4.675107 1.567444 -8.488936 -66.304594 -10.538545 -46.146807 -111.839737 -30.846070 0.000004 -0.000024 -0.000001 0.112136 -14.238174 -0.301013 -0.000001 0.000007 -3.016221 -5.000229 -7.998759 0.000162 -8.431550 62.424610 10.215562 -37.361992 110.926814 25.447241 -0.000000 -0.000009 0.000001 3.778444 8.833722 0.351186 -0.000006 -0.000005 3.002811 -5.000251 7.998891 -0.000136 2.786034 -178.526747 0.059694 -179.999991 0.000006 -1.117004 175.002547 -2.058157 -0.399930 -0.000004 -0.000001 0.038024 68.557593 6.899806 2.143103 25.458477 -7.355626 0.002382 2.008773 177.747381 2.433582 -0.000005 -0.000004 -1.135770 -7.592559 2.077283 0.459269 -0.000000 -0.000000 -0.120335 69.808324 -6.874113 -2.104676 25.710917 7.353955 -0.383489 
50.951591 -15.266720 100.626991 -3.316927 -0.442938 1.905299 -1.873853 -0.070338 -0.052413 0.255050 -0.138962 -0.106564 1.900126 -0.140228 -0.104891 27.174857 0.865539 1.709720 -6.990453 4.686311 1.567351 -8.494473 -66.306110 -10.544929 -46.140670 -111.832169 -30.838943 0.000001 -0.000024 0.000000 0.110641 -14.237576 -0.298908 -0.000000 0.000007 -3.016291 -5.000230 -7.998760 0.000162 -8.433991 62.417021 10.217902 -37.311633 110.918802 25.387335 0.000001 -0.000009 0.000001 3.779554 8.828581 0.351596 -0.000004 -0.000005 3.002810 -5.000253 7.998890 -0.000136 2.787034 -178.526747 0.058268 -179.999991 0.000006 -1.117004 175.001932 -2.055161 -0.399690 -0.000004 -0.000001 0.038023 68.557163 6.899775 2.143223 25.458475 -7.355625 0.002383 2.009420 177.749376 2.437706 -0.000005 -0.000004 -1.135770 -7.590958 2.073029 0.459131 0.000000 -0.000000 -0.120266 69.808427 -6.874115 -2.104770 25.711216 7.353956 -0.384067 
50.934696 -15.314118 100.627983 -3.316041 -0.442696 1.904640 -1.874758 -0.070302 -0.052305 0.253236 -0.138721 -0.106432 1.898306 -0.139985 -0.104762 27.175902 0.858254 1.711339 -6.979729 4.697773 1.567238 -8.500225 -66.306698 -10.551497 -46.133498 -111.825571 -30.830494 0.000003 -0.000025 -0.000001 0.108796 -14.236776 -0.297034 0.000000 0.000007 -3.016379 -5.000230 -7.998761 0.000163 -8.436390 62.409119 10.220164 -37.260765 110.910688 25.327250 0.000000 -0.000008 0.000001 3.780923 8.823559 0.351970 -0.000005 -0.000005 3.002810 -5.000254 7.998890 -0.000136 2.788236 -178.526747 0.056632 -179.999991 0.000006 -1.117004 175.001140 -2.052165 -0.399457 -0.000005 -0.000001 0.038023 68.556644 6.899775 2.143256 25.458478 -7.355626 0.002382 2.010512 177.751397 2.441954 -0.000005 -0.000004 -1.135770 -7.588706 2.068638 0.458961 0.000000 -0.000000 -0.120181 69.808338 -6.874147 -2.104681 25.711416 7.353960 -0.384500 
50.942894 -15.301617 100.627991 -3.315179 -0.442472 1.903950 -1.875640 -0.070270 -0.052182 0.251480 -0.138485 -0.106283 1.896555 -0.139748 -0.104617 27.176544 0.850950 1.712976 -6.968889 4.709377 1.567115 -8.506131 -66.306780 -10.558213 -46.125292 -111.819950 -30.820809 0.000003 -0.000025 -0.000001 0.106755 -14.235777 -0.295294 0.000000 0.000007 -3.016470 -5.000231 -7.998761 0.000163 -8.438732 62.401032 10.222353 -37.209655 110.902519 25.266953 -0.000001 -0.000008 0.000002 3.782428 8.818613 0.352331 -0.000006 -0.000005 3.002810 -5.000252 7.998890 -0.000136 2.789546 -178.526747 0.054876 -179.999991 0.000006 -1.117004 175.000211 -2.048189 -0.400153 -0.000004 -0.000001 0.038023 68.556016 6.899805 2.143201 25.458477 -7.355625 0.002382 2.011828 177.753378 2.446262 -0.000005 -0.000004 -1.135770 -7.586062 2.064190 0.458773 0.000001 -0.000000 -0.120088 69.808112 -6.874106 -2.104688 25.711523 7.353955 -0.384854 
50.948494 -15.296623 100.626991 -3.314330 -0.442253 1.903239 -1.876513 -0.070238 -0.052057 0.249737 -0.138251 -0.106131 1.894816 -0.139512 -0.104467 27.177184 0.843640 1.714607 -6.958018 4.721021 1.566984 -8.512076 -66.306759 -10.564965 -46.117099 -111.814329 -30.811134 0.000002 -0.000025 -0.000001 0.104669 -14.234677 -0.293585 -0.000000 0.000006 -3.016568 -5.000228 -7.998760 0.000162 -8.441065 62.392842 10.224529 -37.158486 110.894378 25.206683 -0.000001 -0.000008 0.000001 3.783984 8.813689 0.352684 -0.000005 -0.000005 3.002809 -5.000250 7.998889 -0.000137 2.790875 -178.526747 0.053091 -179.999991 0.000006 -1.117004 174.999268 -2.044198 -0.399839 -0.000004 -0.000001 0.038024 68.555483 6.899806 2.143134 25.458478 -7.355625 0.002382 2.013204 177.755386 2.450598 -0.000005 -0.000004 -1.135770 -7.583329 2.059713 0.458579 -0.000000 -0.000000 -0.119992 69.807798 -6.874129 -2.104612 25.711622 7.353959 -0.385191 
50.943398 -15.301720 100.626991 -3.313458 -0.442024 1.902549 -1.877391 -0.070204 -0.051938 0.247967 -0.138014 -0.105986 1.893046 -0.139274 -0.104325 27.177932 0.836341 1.716230 -6.947218 4.732597 1.566854 -8.517939 -66.306937 -10.571633 -46.108473 -111.808571 -30.801066 0.000004 -0.000025 -0.000001 0.102676 -14.233678 -0.291808 0.000001 0.000007 -3.016670 -5.000230 -7.998760 0.000162 -8.443453 62.384844 10.226772 -37.107294 110.886243 25.146299 0.000001 -0.000010 0.000001 3.785463 8.808722 0.353046 -0.000002 -0.000005 3.002810 -5.000253 7.998890 -0.000137 2.792155 -178.526747 0.051365 -179.999991 0.000006 -1.117004 174.998380 -2.040208 -0.399522 -0.000004 -0.000001 0.038023 68.554855 6.899796 2.143272 25.458477 -7.355624 0.002382 2.014477 177.756397 2.454854 -0.000005 -0.000004 -1.135770 -7.580797 2.055284 0.458397 0.000000 -0.000000 -0.119901 69.807580 -6.874123 -2.104625 25.711822 7.353956 -0.385581 
